<svg viewBox="0 0 773 771" fill="none" xmlns="http://www.w3.org/2000/svg" width="32" height="32">
    <path fill-rule="evenodd" clip-rule="evenodd" d="M772.223 385.5C772.223 598.405 599.543 771 386.534 771C173.524 771 0.844971 598.405 0.844971 385.5C0.844971 172.594 173.524 0 386.534 0C599.543 0 772.223 172.594 772.223 385.5Z" fill="#0068B7"/>
    <path fill-rule="evenodd" clip-rule="evenodd" d="M650.812 384.674C650.826 531.627 531.649 650.764 384.625 650.778C237.601 650.791 118.404 531.672 118.391 384.72C118.378 237.768 237.555 118.63 384.579 118.617C384.595 118.617 384.609 118.617 384.625 118.617C531.635 118.617 650.812 237.736 650.812 384.674Z" fill="white"/>
    <path fill-rule="evenodd" clip-rule="evenodd" d="M356.681 318.812C356.681 318.812 568.523 252.976 608.31 295.825C653.343 344.443 580.873 434.899 522.594 488.92C458.198 548.549 357.28 624.339 357.28 624.339L318.411 584.249C318.411 584.249 473.791 495.149 539.2 416.923C598.053 346.535 583.702 308.261 537.544 303.112C476.114 296.285 356.681 318.812 356.681 318.812Z" fill="#0068B7"/>
    <path fill-rule="evenodd" clip-rule="evenodd" d="M342.583 326.791C342.583 326.791 515.994 293.873 552.263 316.814C590.51 340.997 540.763 408.626 472.687 461.199C420.848 501.197 305.785 572.251 305.785 572.251L267.861 535.471C267.861 535.471 408.774 472.095 471.422 414.051C527.815 361.847 538.486 332.86 487.982 327.205C440.121 321.826 342.583 326.791 342.583 326.791Z" fill="#0068B7"/>
    <path fill-rule="evenodd" clip-rule="evenodd" d="M386.81 324.789L346.7 415.452H386.212L386.258 448.6L426.091 356.328L386.764 356.42L386.81 324.789Z" fill="#0068B7"/>
    <path fill-rule="evenodd" clip-rule="evenodd" d="M416.294 454.346C416.294 454.346 204.43 520.206 164.642 477.334C119.587 428.715 192.08 338.26 250.381 284.239C314.778 224.61 415.673 148.82 415.673 148.82L454.541 188.91C454.541 188.91 299.162 278.01 233.753 356.236C174.853 426.624 189.227 464.898 235.386 470.047C296.839 476.874 416.294 454.346 416.294 454.346Z" fill="#00AFEC"/>
    <path fill-rule="evenodd" clip-rule="evenodd" d="M430.369 446.374C430.369 446.374 256.959 479.315 220.667 456.373C182.443 432.191 232.166 364.538 300.266 311.989C352.105 271.991 467.167 200.938 467.167 200.938L505.092 237.717C505.092 237.717 364.225 301.139 301.507 359.136C245.161 411.341 234.489 440.329 284.971 445.984C332.74 451.317 430.369 446.374 430.369 446.374Z" fill="#00AFEC"/>
    <path fill-rule="evenodd" clip-rule="evenodd" d="M79.7536 448.575L81.4326 442.254C85.8702 441.712 90.3733 442.239 94.5649 443.793C97.4806 444.966 99.6373 447.49 100.338 450.552C101.211 454.39 99.6936 458.091 95.7378 461.609C90.6284 465.689 84.5811 468.432 78.1437 469.586C69.9102 471.517 63.2175 471.747 58.0658 470.322C52.9141 468.897 49.8783 466.16 48.8664 462.091C48.0773 458.429 49.3676 454.632 52.2242 452.207C54.7039 450.014 57.5647 448.292 60.6647 447.126L64.3445 452.392C62.2219 453.102 60.3039 454.315 58.7559 455.931C57.5995 457.103 57.1075 458.78 57.4449 460.391C58.1662 462.722 60.1954 464.406 62.6196 464.689C67.0781 465.31 71.6181 464.974 75.9359 463.7C80.5604 462.919 84.9707 461.182 88.8842 458.598C90.9736 457.329 92.0836 454.917 91.69 452.506C91.2102 450.853 89.9021 449.572 88.2402 449.126C85.4838 448.336 82.5894 448.147 79.7536 448.575Z" fill="white"/>
    <path fill-rule="evenodd" clip-rule="evenodd" d="M96.1518 435.546L45.7845 442.258L45.0026 436.258L64.7815 433.638L63.2406 422.029L43.4387 424.673L42.6337 418.673L93.0009 411.961L93.7829 417.96L71.7041 420.903L73.2451 432.511L95.3468 429.546L96.1518 435.546Z" fill="white"/>
    <path fill-rule="evenodd" clip-rule="evenodd" d="M91.6211 380.836L91.874 387.341L80.3746 390.352L80.8346 402.283L92.334 404.283L92.5869 410.765L41.5527 401.225L41.2998 394.628L91.6211 380.836ZM71.9801 392.559L53.2362 397.479L72.2791 400.789L71.9801 392.559Z" fill="white"/>
    <path fill-rule="evenodd" clip-rule="evenodd" d="M91.7821 379.636L41.0698 376.671L41.4148 370.855L76.0739 360.626L42.1277 358.649L42.4497 353.109L93.1619 356.051L92.794 362.074L58.9399 372.142L92.104 374.073L91.7821 379.636Z" fill="white"/>
    <path fill-rule="evenodd" clip-rule="evenodd" d="M77.2468 334.973L68.8062 333.639L70.8301 320.858L90.977 324.122C92.9644 325.84 94.537 327.987 95.5767 330.398C96.7281 332.74 97.1448 335.377 96.7727 337.961C96.3051 340.986 94.6495 343.701 92.173 345.501C89.1307 347.627 85.5718 348.898 81.8695 349.179C77.3109 349.678 72.7052 349.537 68.1852 348.765C63.4018 348.108 58.7477 346.719 54.3861 344.65C50.9588 343.085 48.0246 340.611 45.8995 337.501C42.8558 332.143 44.5805 325.338 49.8092 322.077C53.355 320.258 57.3363 319.463 61.3087 319.778L62.2746 325.938C60.124 325.872 57.9929 326.364 56.0879 327.364C54.5714 328.159 53.5219 329.626 53.2591 331.318C52.8989 334.053 54.1655 336.745 56.5019 338.214C60.1672 340.591 64.3449 342.064 68.6913 342.512C73.2473 343.489 77.9657 343.418 82.4904 342.306C85.2343 341.775 87.3866 339.641 87.9412 336.903C88.1371 335.55 87.9124 334.17 87.2972 332.95C86.6524 331.573 85.7816 330.315 84.7213 329.226L78.2587 328.191L77.2468 334.973Z" fill="white"/>
    <path fill-rule="evenodd" clip-rule="evenodd" d="M82.2145 319.159L82.7434 313.228C85.2782 313.762 87.9039 313.683 90.402 312.998C93.1923 312.012 94.6541 308.953 93.6672 306.162C93.4747 305.619 93.1953 305.109 92.8399 304.654C91.7017 303.33 90.1709 302.406 88.4702 302.01C87.453 301.721 86.3837 301.668 85.3423 301.85C84.3214 302.091 83.3937 302.627 82.6745 303.39C81.4836 304.67 80.37 306.022 79.3397 307.436C77.701 309.78 75.4044 311.589 72.7391 312.631C69.2798 313.661 65.5959 313.661 62.1366 312.631C59.7215 312.033 57.4371 310.999 55.398 309.573C53.6682 308.399 52.2988 306.767 51.4422 304.861C50.6971 302.921 50.608 300.788 51.1892 298.792C51.8341 295.503 54.1825 292.804 57.3528 291.712C61.1532 290.606 65.1899 290.606 68.9902 291.712L67.8633 297.666C65.9098 297.222 63.8748 297.284 61.9526 297.85C60.6016 298.408 59.6239 299.608 59.3537 301.045C58.8818 302.548 59.1739 304.187 60.1357 305.436C60.8663 306.293 61.8615 306.884 62.9646 307.114C64.0193 307.449 65.1526 307.449 66.2074 307.114C68.0988 306.047 69.6832 304.512 70.8071 302.654C72.2245 300.601 73.9734 298.799 75.9818 297.321C77.7348 296.222 79.7355 295.583 81.8005 295.459C84.5518 295.287 87.3124 295.583 89.9651 296.333C92.6755 297.011 95.2449 298.162 97.5546 299.735C99.5916 301.008 101.195 302.866 102.155 305.068C102.924 307.229 102.989 309.58 102.339 311.78C101.622 315.187 99.1545 317.959 95.8528 319.067C91.391 320.276 86.6921 320.306 82.2145 319.159Z" fill="white"/>
    <path fill-rule="evenodd" clip-rule="evenodd" d="M105.213 296.672L57.3529 279.639L59.3768 273.938L78.1898 280.65L82.1225 269.616L63.3096 262.904L65.3565 257.203L113.194 274.26L111.17 279.961L90.1722 272.467L86.2394 283.501L107.237 290.994L105.213 296.672Z" fill="white"/>
    <path fill-rule="evenodd" clip-rule="evenodd" d="M126.188 245.965L123.428 251.873L111.929 249.344L106.892 260.148L116.275 267.228L113.539 273.067L72.3251 241.368L75.1308 235.391L126.188 245.965ZM103.35 247.436L84.4454 243.275L99.8776 254.884L103.35 247.436Z" fill="white"/>
    <path fill-rule="evenodd" clip-rule="evenodd" d="M94.4268 199.828L97.8076 194.817L120.646 210.31C124.279 212.77 126.671 214.287 127.821 214.908C129.396 215.803 131.184 216.256 132.996 216.218C134.535 216.175 135.951 215.364 136.767 214.057C137.669 212.875 137.903 211.314 137.389 209.92C136.815 208.45 135.862 207.157 134.628 206.173C133.295 205.046 130.949 203.368 127.614 201.115L104.34 185.3L107.72 180.289L129.799 195.392C133.423 197.742 136.909 200.298 140.24 203.046C141.939 204.487 143.392 206.195 144.541 208.104C145.452 209.696 145.958 211.488 146.013 213.322C145.955 215.337 145.281 217.287 144.081 218.908C142.934 220.873 141.172 222.408 139.068 223.275C137.282 223.864 135.379 224.006 133.525 223.689C131.574 223.394 129.68 222.797 127.913 221.919C124.103 219.898 120.424 217.641 116.897 215.161L94.4268 199.828Z" fill="white"/>
    <path fill-rule="evenodd" clip-rule="evenodd" d="M152.383 205.205L113.24 172.839L116.966 168.356L150.957 180.609L124.763 158.931L128.304 154.656L167.448 187.022L163.607 191.643L130.35 179.758L155.949 200.93L152.383 205.205Z" fill="white"/>
    <path d="M133.779 148.922L137.93 144.524L174.885 179.369L170.735 183.766L133.779 148.922Z" fill="white"/>
    <path fill-rule="evenodd" clip-rule="evenodd" d="M183.11 171.116L140.677 141.278L145.369 136.887L176.601 159.208L156.224 126.727L160.916 122.336L187.848 166.679L183.11 171.116Z" fill="white"/>
    <path fill-rule="evenodd" clip-rule="evenodd" d="M196.656 158.71L165.308 118.734L182.627 105.172L187.894 111.907L175.359 121.746L182.282 130.573L193.919 121.447L199.186 128.182L187.548 137.285L196.151 148.25L209.145 138.067L214.412 144.779L196.656 158.71Z" fill="white"/>
    <path fill-rule="evenodd" clip-rule="evenodd" d="M217.033 142.87L189.434 100.228L200.015 93.332C201.932 91.8893 204.205 90.9918 206.592 90.7344C208.641 90.8769 210.587 91.684 212.134 93.0331C214.283 94.7071 216.12 96.7456 217.562 99.0558C219.46 101.722 220.691 104.805 221.15 108.044C221.478 110.629 220.635 113.225 218.85 115.124C220.587 115.517 222.258 116.151 223.818 117.009C226.367 118.545 228.81 120.25 231.132 122.112L239.549 128.48L233.546 132.342L223.979 125.446C220.529 122.986 218.298 121.469 217.263 120.848C216.453 120.35 215.523 120.081 214.573 120.067C213.536 120.202 212.553 120.607 211.72 121.239L210.686 121.883L222.184 139.721L217.033 142.87ZM206.27 114.94L209.972 112.642C211.571 111.793 212.98 110.627 214.112 109.217C214.493 108.363 214.566 107.405 214.32 106.504C214.036 105.233 213.504 104.03 212.756 102.964C212.032 101.732 211.033 100.685 209.834 99.9064C208.969 99.3071 207.879 99.1296 206.868 99.4236C205.564 100.098 204.311 100.866 203.119 101.723L199.232 104.228L206.27 114.94Z" fill="white"/>
    <path fill-rule="evenodd" clip-rule="evenodd" d="M231.729 113.95L236.467 110.341C237.776 112.581 239.595 114.48 241.78 115.881C243.307 116.741 245.175 116.741 246.701 115.881C248.274 115.185 249.372 113.722 249.6 112.019C249.8 110.286 249.455 108.534 248.61 107.008C248.141 106.065 247.475 105.234 246.655 104.571C245.789 103.989 244.776 103.663 243.735 103.629C242.907 103.629 241.159 103.629 238.468 103.881C235.628 104.253 232.739 103.781 230.165 102.525C227.051 100.69 224.553 97.9683 222.99 94.7089C221.797 92.5256 221.017 90.1408 220.69 87.6747C220.407 85.5659 220.734 83.4198 221.633 81.4911C222.582 79.6342 224.107 78.134 225.979 77.2154C228.865 75.5066 232.435 75.4367 235.386 77.0315C238.77 79.0885 241.49 82.0722 243.229 85.6289L238.054 88.7781C237.068 87.0336 235.66 85.5638 233.96 84.5025C232.638 83.8781 231.088 83.9646 229.843 84.7323C228.425 85.3932 227.408 86.6916 227.107 88.2264C226.954 89.3558 227.181 90.5038 227.75 91.4907C228.265 92.4729 229.068 93.2749 230.05 93.7894C232.12 94.5025 234.337 94.6687 236.49 94.2721C238.963 93.9478 241.474 94.0333 243.919 94.525C245.906 95.1068 247.723 96.164 249.209 97.6053C251.187 99.5287 252.819 101.776 254.038 104.249C255.361 106.717 256.225 109.404 256.591 112.18C256.977 114.519 256.657 116.92 255.671 119.076C254.567 121.089 252.851 122.699 250.772 123.674C247.76 125.397 244.057 125.397 241.044 123.674C237.153 121.288 233.944 117.939 231.729 113.95Z" fill="white"/>
    <path d="M243.237 69.7734L248.756 67.2968L269.566 113.621L264.047 116.098L243.237 69.7734Z" fill="white"/>
    <path fill-rule="evenodd" clip-rule="evenodd" d="M279.659 109.444L264.571 69.9977L256.315 73.147L253.257 65.1933L275.427 56.7109L278.463 64.6876L270.206 67.8368L285.316 107.284L279.659 109.444Z" fill="white"/>
    <path fill-rule="evenodd" clip-rule="evenodd" d="M302.911 101.375L296.954 80.8474L278.302 55.6301L285.155 53.6532L297.414 71.0777L298.38 49.8372L305.049 47.9062L302.773 79.2382L308.706 99.6971L302.911 101.375Z" fill="white"/>
    <path fill-rule="evenodd" clip-rule="evenodd" d="M335.615 67.7688C335.019 63.4173 334.957 59.0094 335.431 54.6429C335.755 52.1476 336.403 49.7052 337.363 47.3789C338.085 45.4914 339.207 43.782 340.651 42.3676C342.353 40.8013 344.515 39.8257 346.815 39.5861C351.185 39.0574 354.956 40.9654 358.153 45.264C361.35 49.5627 363.398 55.8383 364.386 64.0908C365.52 70.6652 364.965 77.4198 362.776 83.7221C360.676 88.6568 357.471 91.3999 353.162 91.9516C348.609 92.4401 344.182 90.2544 341.801 86.3427C338.225 80.83 336.097 74.505 335.615 67.9527V67.7688ZM341.778 66.6884C342.063 71.1925 343.395 75.5687 345.665 79.4694C346.893 81.8691 349.41 83.3329 352.105 83.2164C354.404 82.9405 356.267 81.2394 357.441 78.1132C358.717 73.7232 358.969 69.0991 358.176 64.5965C357.889 60.1094 356.582 55.7466 354.359 51.8385C353.123 49.4627 350.589 48.052 347.919 48.2524C345.263 48.7066 343.131 50.6937 342.491 53.3097C341.236 57.6488 340.992 62.2175 341.778 66.6654V66.6884Z" fill="white"/>
    <path fill-rule="evenodd" clip-rule="evenodd" d="M370.113 89.2612L368.733 38.5048L389.179 37.9531L389.408 46.4815L375.011 46.8723L375.333 58.9637L387.729 58.6189L387.937 67.1702L375.587 67.492L376.139 89.0773L370.113 89.2612Z" fill="white"/>
    <path fill-rule="evenodd" clip-rule="evenodd" d="M414.823 73.3099L420.733 73.103C420.525 75.6831 420.936 78.2754 421.929 80.6659C423.309 83.311 426.574 84.3367 429.22 82.9568C429.702 82.7053 430.144 82.3826 430.53 81.9991C431.669 80.7137 432.384 79.1082 432.577 77.4016C432.745 76.3649 432.673 75.3036 432.37 74.2983C431.993 73.3193 431.349 72.4667 430.507 71.8387C429.068 70.7987 427.571 69.8395 426.022 68.9653C423.479 67.6486 421.384 65.6088 419.997 63.1034C418.508 59.8151 418.019 56.1617 418.595 52.5981C418.923 50.1323 419.703 47.748 420.894 45.564C421.855 43.642 423.357 42.0434 425.218 40.9665C427.053 39.9819 429.162 39.6265 431.221 39.955C434.571 40.1773 437.548 42.1775 439.017 45.1962C440.617 48.8018 441.147 52.7926 440.535 56.6899L434.509 56.2991C434.691 54.3162 434.385 52.3191 433.612 50.4833C432.909 49.1663 431.582 48.2995 430.093 48.1846C428.545 47.903 426.959 48.3919 425.839 49.4948C425.064 50.3268 424.594 51.3961 424.504 52.5292C424.343 53.6209 424.52 54.7355 425.011 55.7244C426.266 57.4726 427.954 58.8664 429.909 59.7702C432.126 60.9674 434.13 62.5207 435.843 64.3677C437.134 65.9819 438.016 67.8818 438.419 69.9077C438.934 72.6152 438.983 75.3912 438.557 78.1143C438.233 80.8909 437.407 83.5857 436.119 86.0679C435.137 88.2 433.534 89.9864 431.52 91.1941C429.461 92.2355 427.127 92.5977 424.85 92.2286C421.384 91.9288 418.329 89.8349 416.801 86.7116C414.995 82.4899 414.314 77.8729 414.823 73.3099Z" fill="white"/>
    <path fill-rule="evenodd" clip-rule="evenodd" d="M462.637 79.1442L467.72 83.3739C466.317 87.6206 463.902 91.4625 460.682 94.5688C458.37 96.7066 455.15 97.5668 452.08 96.8675C448.216 96.04 445.549 93.0746 444.077 88.0174C442.586 81.6521 442.706 75.0159 444.421 68.7079C446.261 60.4554 449.021 54.2947 452.425 50.3179C455.829 46.3411 459.739 44.7549 463.81 45.7204C467.369 46.5985 470.178 49.3336 471.146 52.8695C472.083 56.0517 472.402 59.383 472.089 62.6852L465.765 63.7426C466.055 61.5201 465.786 59.2605 464.982 57.1682C464.433 55.6114 463.135 54.4361 461.533 54.0419C459.113 53.6879 456.712 54.7972 455.415 56.8693C452.917 60.6158 451.262 64.8586 450.562 69.3055C449.277 73.7844 448.941 78.4817 449.574 83.098C450.309 86.071 451.735 87.7951 453.851 88.2702C455.576 88.5817 457.334 87.9403 458.451 86.5921C460.369 84.4414 461.798 81.9004 462.637 79.1442Z" fill="white"/>
    <path d="M467.458 99.8047L481.623 51.0384L487.432 52.7241L473.267 101.49L467.458 99.8047Z" fill="white"/>
    <path fill-rule="evenodd" clip-rule="evenodd" d="M477.264 102.549L494.375 54.7578L515.074 62.1597L512.199 70.2054L497.204 64.8263L493.409 75.4005L507.323 80.3888L504.449 88.4344L490.534 83.4461L485.842 96.549L501.389 102.112L498.515 110.158L477.264 102.549Z" fill="white"/>
    <path fill-rule="evenodd" clip-rule="evenodd" d="M501.55 111.395L522.917 65.3281L528.229 67.7648L525.01 103.74L539.292 72.914L544.351 75.2357L522.986 121.303L517.535 118.774L520.571 83.6032L506.611 113.74L501.55 111.395Z" fill="white"/>
    <path fill-rule="evenodd" clip-rule="evenodd" d="M552.814 116.845L556.265 122.408C553.606 126.007 550.129 128.922 546.122 130.914C543.264 132.216 539.947 132.036 537.245 130.431C533.841 128.431 532.185 124.799 532.323 119.535C532.832 112.977 534.982 106.653 538.578 101.145C542.856 93.8348 547.279 88.8081 551.849 86.065C556.448 83.3065 560.496 82.9847 564.084 85.0766C567.287 87.0031 569.162 90.5407 568.96 94.2715C568.893 97.5799 568.183 100.844 566.867 103.88L560.519 102.961C561.474 100.931 561.909 98.6953 561.785 96.4554C561.739 94.8209 560.873 93.3187 559.485 92.4555C557.302 91.3643 554.675 91.6809 552.814 93.2601C549.294 96.0595 546.421 99.5886 544.397 103.605C541.773 107.505 540.002 111.915 539.2 116.547C538.705 118.925 539.696 121.366 541.706 122.73C543.243 123.551 545.103 123.49 546.582 122.569C549.038 121.119 551.161 119.169 552.814 116.845Z" fill="white"/>
    <path fill-rule="evenodd" clip-rule="evenodd" d="M551.158 137.761L580.643 96.4297L598.537 109.188L593.591 116.153L580.597 106.889L574.089 116.038L586.14 124.612L581.149 131.577L569.121 122.98L561.025 134.313L574.48 143.899L569.511 150.864L551.158 137.761Z" fill="white"/>
    <path fill-rule="evenodd" clip-rule="evenodd" d="M610.841 180.404L603.113 183.277C602.911 180.748 603.113 178.203 603.711 175.737C601.873 176.193 599.962 176.256 598.099 175.921C596.43 175.54 594.912 174.677 593.729 173.439C591.075 170.954 590.17 167.123 591.429 163.715C592.456 160.57 594.231 157.722 596.605 155.416C598.698 153.237 601.218 151.515 604.01 150.359C606.68 149.294 609.564 148.869 612.428 149.118C613.09 147.117 613.929 145.178 614.935 143.325C615.797 141.758 616.864 140.313 618.108 139.026C620.001 137.009 622.464 135.614 625.169 135.026C627.602 134.487 630.139 135.274 631.838 137.095C633.619 138.808 634.347 141.342 633.747 143.739C633.106 146.566 631.632 149.136 629.516 151.118C628.115 152.545 626.461 153.698 624.64 154.52C622.25 155.455 619.709 155.939 617.142 155.945L613.577 165.508C615.302 164.579 616.949 163.51 618.499 162.313L620.799 167.347C618.223 169.186 616.261 170.489 614.912 171.255C613.814 171.916 612.669 172.492 611.485 172.979C611.199 174.344 611 175.726 610.887 177.117C610.753 178.207 610.708 179.306 610.749 180.404H610.841ZM610.312 155.669C608.599 155.538 606.878 155.822 605.298 156.497C603.727 157.139 602.304 158.093 601.112 159.301C599.78 160.55 598.817 162.14 598.33 163.899C597.908 165.218 598.274 166.663 599.272 167.623C599.93 168.291 600.8 168.713 601.733 168.818C603.092 168.975 604.466 168.913 605.804 168.634L610.265 155.761L619.35 149.83L621.811 149.417C623.458 149.265 625.008 148.578 626.227 147.463C627.041 146.681 627.614 145.684 627.883 144.589C628.138 143.688 627.883 142.719 627.216 142.061C626.616 141.455 625.751 141.195 624.916 141.371C623.975 141.555 623.113 142.03 622.455 142.727C621.436 143.89 620.703 145.276 620.316 146.773L619.373 149.761L610.312 155.669Z" fill="white"/>
    <path fill-rule="evenodd" clip-rule="evenodd" d="M624.87 207.485L659 182.567L653.78 175.417L660.679 170.383L674.662 189.532L667.786 194.566L662.565 187.44L628.457 212.358L624.87 207.485Z" fill="white"/>
    <path fill-rule="evenodd" clip-rule="evenodd" d="M634.736 221.163L678.089 194.75L689.542 213.508L682.252 217.944L673.972 204.336L664.359 210.198L672.064 222.818L664.75 227.277L657.068 214.634L645.178 221.875L653.78 235.966L646.489 240.426L634.736 221.163Z" fill="white"/>
    <path fill-rule="evenodd" clip-rule="evenodd" d="M673.305 252.173L673.075 258.701C668.88 260.241 664.377 260.754 659.943 260.195C656.836 259.708 654.17 257.722 652.813 254.885C651.065 251.345 651.703 247.414 654.722 243.093C658.77 237.959 664.035 233.914 670.04 231.323C677.628 227.599 684.092 225.829 689.427 226.059C694.763 226.289 698.351 228.358 700.191 232.013C701.787 235.406 701.38 239.401 699.133 242.403C697.242 245.125 694.855 247.462 692.096 249.299L687.311 245.001C689.195 243.865 690.775 242.286 691.911 240.403C692.776 239.017 692.879 237.286 692.188 235.806C690.971 233.691 688.609 232.507 686.185 232.794C681.702 233.194 677.357 234.55 673.443 236.771C669.085 238.55 665.163 241.247 661.944 244.679C660.212 246.389 659.67 248.968 660.564 251.23C661.425 252.747 663.006 253.713 664.75 253.782C667.685 253.867 670.603 253.32 673.305 252.173Z" fill="white"/>
    <path fill-rule="evenodd" clip-rule="evenodd" d="M660.311 268.631L707.78 250.586L709.919 256.24L691.244 263.321L695.43 274.263L714.105 267.182L716.243 272.837L668.751 290.86L666.613 285.228L687.449 277.32L683.263 266.355L662.45 274.263L660.311 268.631Z" fill="white"/>
    <path fill-rule="evenodd" clip-rule="evenodd" d="M670.109 294.954L719.073 281.484L720.614 287.093L691.083 307.896L723.879 298.862L725.351 304.241L676.387 317.712L674.777 311.919L703.594 291.506L671.58 300.31L670.109 294.954Z" fill="white"/>
    <path fill-rule="evenodd" clip-rule="evenodd" d="M701.938 316.56C706.256 315.737 710.66 315.452 715.048 315.709C717.559 315.909 720.032 316.433 722.407 317.272C724.334 317.893 726.101 318.927 727.582 320.306C729.215 321.932 730.294 324.033 730.664 326.306C731.4 330.658 729.691 334.529 725.535 337.915C721.38 341.301 715.248 343.692 707.136 345.087C700.628 346.549 693.852 346.335 687.449 344.466C682.436 342.673 679.537 339.616 678.802 335.271C678.156 330.793 680.109 326.338 683.839 323.778C687.956 320.398 694.028 318.054 702.03 316.674L701.938 316.56ZM703.319 322.651C698.822 323.18 694.515 324.755 690.738 327.249C688.406 328.591 687.068 331.168 687.311 333.846C687.725 336.145 689.611 337.892 692.693 338.926C697.15 339.949 701.782 339.949 706.24 338.926C710.706 338.425 715 336.917 718.797 334.513C721.111 333.145 722.391 330.536 722.062 327.869C721.444 325.253 719.363 323.235 716.727 322.697C712.321 321.658 707.732 321.642 703.319 322.651Z" fill="white"/>
    <path fill-rule="evenodd" clip-rule="evenodd" d="M682.206 352.189L732.481 348.258L732.941 354.281L691.198 357.545L692.371 372.464L683.862 373.131L682.206 352.189Z" fill="white"/>
    <path fill-rule="evenodd" clip-rule="evenodd" d="M709.206 374.7C713.601 374.668 717.98 375.185 722.246 376.24C724.661 376.897 726.98 377.863 729.147 379.113C730.952 380.067 732.522 381.41 733.746 383.044C735.083 384.936 735.761 387.212 735.678 389.527C735.678 393.924 733.302 397.412 728.548 399.986C723.833 402.561 717.348 403.802 709.045 403.664C700.743 403.526 694.395 402.17 689.795 399.48C685.195 396.791 682.896 393.251 682.896 388.86C683.043 384.29 685.795 380.205 689.979 378.355C695.975 375.527 702.592 374.27 709.206 374.7ZM709.459 380.93C704.952 380.626 700.435 381.366 696.258 383.09C693.702 383.98 691.904 386.281 691.658 388.975C691.83 391.646 693.535 393.975 696.027 394.952C704.536 398.11 713.868 398.264 722.476 395.389C725 394.467 726.734 392.138 726.893 389.458C726.771 386.775 725.101 384.408 722.614 383.389C718.451 381.543 713.918 380.679 709.367 380.861L709.459 380.93Z" fill="white"/>
    <path fill-rule="evenodd" clip-rule="evenodd" d="M700.329 421.822L708.815 422.811L707.32 435.684L687.058 433.385C685.028 431.739 683.392 429.656 682.275 427.293C681.04 424.992 680.513 422.376 680.757 419.776C681.104 416.733 682.652 413.951 685.057 412.053C688.016 409.814 691.515 408.4 695.2 407.961C699.733 407.292 704.338 407.244 708.884 407.823C713.64 408.31 718.293 409.519 722.683 411.409C726.191 412.846 729.227 415.234 731.446 418.305C734.707 423.523 733.277 430.385 728.203 433.868C724.742 435.787 720.821 436.725 716.865 436.58L715.646 430.443C717.805 430.433 719.924 429.854 721.786 428.764C723.284 427.921 724.279 426.404 724.454 424.696C724.732 421.944 723.337 419.291 720.913 417.96C717.155 415.714 712.909 414.413 708.54 414.167C703.942 413.363 699.222 413.623 694.74 414.926C692.019 415.572 689.956 417.797 689.519 420.558C689.379 421.914 689.668 423.282 690.348 424.466C691.021 425.827 691.941 427.05 693.061 428.075L699.57 428.856L700.329 421.822Z" fill="white"/>
    <path fill-rule="evenodd" clip-rule="evenodd" d="M677.882 443.523L698.811 448.006L729.859 443.546L728.341 450.512L707.182 453.04L725.443 463.959L723.994 470.741L697.454 453.914L676.617 449.431L677.882 443.523Z" fill="white"/>
    <path fill-rule="evenodd" clip-rule="evenodd" d="M225.91 622.958C224.94 617.597 220.903 613.31 215.607 612.016C216.254 615.153 217.171 618.229 218.345 621.211L218.505 621.372C217.965 622.93 217.549 624.528 217.263 626.153V626.314C217.658 627.433 218.41 628.394 219.402 629.049H219.655C222.829 629.877 224.922 627.923 225.91 623.073V622.958Z" fill="white"/>
    <path fill-rule="evenodd" clip-rule="evenodd" d="M217.746 630.798L217.884 630.614L217.631 630.385L214.825 628.086H214.573C212.088 628.477 209.604 630.523 207.167 634.155H207.006C205.434 635.04 203.624 635.41 201.831 635.212C199.209 639.809 199.048 643.465 201.233 646.522L201.417 646.66C204.545 646.246 206.592 643.97 207.488 639.763C207.948 638.292 208.639 637.649 210.064 637.787C212.769 638.531 215.63 637.311 216.964 634.844L217.102 634.66C217.405 633.389 217.619 632.1 217.746 630.798Z" fill="white"/>
    <path fill-rule="evenodd" clip-rule="evenodd" d="M560.106 602.271V602.501C560.492 608.638 562.414 614.583 565.694 619.787V620.017C565.676 623.596 565.954 627.171 566.522 630.706L566.338 630.844C564.254 630.495 562.196 630.01 560.174 629.396L560.037 629.212C558.702 629.212 557.967 629.879 557.875 631.028L558.013 631.212C557.895 631.665 558.059 632.143 558.426 632.43C562.146 634.782 565.151 638.106 567.12 642.039C566.26 643.871 564.843 645.384 563.072 646.361L562.796 646.591C561.964 647.701 561.964 649.227 562.796 650.338C565.257 652.637 568.293 652.499 571.72 649.464V649.211C571.167 646.913 571.282 645.579 572.249 645.258H572.41C574.061 645.733 575.802 644.878 576.435 643.281V643.005C576.86 639.391 578.615 636.065 581.356 633.672L575.169 635.488C574.549 637.787 573.421 638.154 571.789 636.775L571.651 636.591C570.731 632.568 571.651 631.488 574.296 633.143C575.061 633.635 575.415 634.566 575.169 635.442L581.356 633.626C582.529 634.315 582.966 635.028 582.575 635.925C581.223 637.589 580.586 639.722 580.804 641.855L580.62 642.016C578.757 645.28 576.917 648.798 575.031 652.545V652.797C573.634 661.958 571.361 670.964 568.247 679.693C570.322 680.679 572.739 680.635 574.779 679.578L575.123 679.463C576.499 678.969 577.557 677.851 577.976 676.451V676.291C578.206 673.785 578.504 671.394 578.895 668.935L579.056 668.774C577.815 661.963 579.15 654.933 582.805 649.05L582.989 648.913C583.334 642.961 585.555 637.272 589.337 632.66V632.775C588.803 635.98 588.603 639.23 588.739 642.476V642.729C591.429 647.326 593.775 651.096 595.523 654.108C595.995 654.832 596.526 655.517 597.11 656.154C597.814 657.234 598.031 658.56 597.708 659.809V659.97C595.799 663.716 593.89 667.325 592.235 671.026C589.474 673.049 588.049 675.026 588.003 677.187C589.431 678.318 591.195 678.941 593.017 678.957H593.269C595.086 677.785 596.795 676.454 598.376 674.98L598.56 674.819C599.293 671.514 600.501 668.33 602.148 665.372V665.119C606.747 666.866 609.346 669.854 609.484 674.038V674.199C606.94 675.426 604.144 676.042 601.319 675.992C601.834 677.897 603.164 679.479 604.953 680.313L605.183 680.589C607.577 680.5 609.971 680.709 612.313 681.21L612.474 681.394C614.249 681.454 615.978 680.828 617.303 679.647L617.556 679.417C617.977 677.102 617.604 674.714 616.499 672.636V672.475C610.266 667.257 607.069 661.946 606.747 657.004C606.747 656.154 607.207 655.533 608.242 655.142C608.886 654.574 609.403 653.878 609.759 653.096L609.599 652.912L609.713 652.66C610.381 650.542 610.547 648.299 610.196 646.108L610.058 645.924C609.527 644.163 607.897 642.966 606.056 642.982L605.873 643.143C603.366 645.77 601.059 648.584 598.973 651.556C597.248 648.678 596.448 645.34 596.674 641.993L596.536 641.809C595.116 640.554 594.02 638.977 593.338 637.212L593.2 637.005C594.063 630.922 596.375 625.137 599.939 620.132V619.971C599.939 618.822 600.124 617.833 600.124 616.753L599.916 616.477C599.27 614.742 597.743 613.486 595.915 613.19L595.753 613.351C594.282 615.65 592.948 617.535 591.797 619.282L591.59 618.822C590.204 610.365 588.229 602.016 585.68 593.835L585.427 593.582C584.22 592.2 582.389 591.531 580.574 591.812C580.253 591.628 580 591.812 579.77 592.317C578.387 595.655 576.708 598.864 574.756 601.903V602.087C574.353 603.935 574.245 605.836 574.434 607.719C574.733 608.087 574.962 608.179 575.077 608.11C577.907 607.098 578.757 607.029 577.584 607.995C579.493 607.144 580.23 605.282 579.724 602.478L579.908 602.34C583.527 606.448 585.92 611.489 586.807 616.891L586.646 617.466L586.807 617.65C587.623 619.466 588.16 621.397 588.394 623.373V623.649C587.037 626.178 585.726 628.5 584.553 630.408V630.637C583.437 628.323 581.517 626.491 579.148 625.488H578.895L574.779 623.856C574.618 626.615 573.306 627.258 570.846 625.948C570.627 623.718 571.305 621.493 572.732 619.764V619.512C574.135 619.718 574.756 621.19 574.687 623.856L578.803 625.488C578.895 622.762 580.023 620.174 581.955 618.247C583.435 619.298 585.489 618.96 586.554 617.489L586.715 616.914C585.321 613.742 583.391 610.834 581.011 608.317C578.39 609.604 578.321 611.351 580.873 613.811V614.155C578.969 611.96 576.469 610.362 573.675 609.558L573.56 609.788C572.607 612.096 571.296 614.236 569.673 616.132C567.601 613.227 566.998 609.523 568.04 606.11L567.902 605.926C566.897 604.735 566.117 603.372 565.602 601.903L565.465 601.719C563.257 602.409 561.67 602.271 560.106 602.271Z" fill="white"/>
    <path fill-rule="evenodd" clip-rule="evenodd" d="M501.114 640.802L500.907 640.641L500.792 640.411C499.917 639.928 499.274 640.204 499.09 641.216L499.205 641.423C499.304 651.227 500.665 660.976 503.252 670.433C503.528 671.858 503.965 673.099 504.311 674.364C505.987 677.947 504.771 682.219 501.458 684.386L501.137 684.547L497.066 686.432C497.181 686.639 497.342 686.708 497.709 686.432H497.916V686.547C495.902 687.775 493.738 688.74 491.477 689.42V689.305C489.948 689.6 488.568 690.411 487.567 691.604L487.406 691.811C486.843 692.315 486.47 692.997 486.349 693.742C487.144 695.884 488.71 697.655 490.741 698.707L490.948 698.868C491.806 698.864 492.662 698.995 493.478 699.259L493.662 699.42C496.703 699.277 499.593 698.064 501.826 695.995L501.987 695.788C502.846 694.873 504.023 694.321 505.276 694.248H505.506C506.152 704.103 503.924 713.932 499.09 722.545C497.112 726.063 495.663 728.568 494.835 730.131H494.628C493.296 730.568 492.145 731.423 491.339 732.568L491.132 732.683C490.502 732.954 489.934 733.343 489.453 733.832C489.637 734.775 490.075 735.12 490.81 734.752L491.132 734.614C499.779 732.522 505.207 728.062 507.231 720.821C509.717 712.693 511.343 704.326 512.084 695.857C512.852 686.513 516.32 677.591 522.065 670.18C524.241 667.479 524.583 663.739 522.94 660.686C521.491 659.537 520.363 659.284 519.122 659.996H518.915C517.473 658.875 515.644 658.371 513.832 658.594H513.625C514.098 661.134 515.019 663.569 516.338 665.789V665.996C514.522 668.525 512.682 670.961 510.819 673.375C509.161 666.012 508.609 658.443 509.186 650.916V650.756C508.683 648.011 507.486 645.439 505.713 643.285V643.078C504.242 642.204 502.724 641.469 501.114 640.802Z" fill="white"/>
    <path fill-rule="evenodd" clip-rule="evenodd" d="M447.504 684.156V683.903C446.466 681.439 444.327 679.607 441.731 678.961H441.501C439.73 680.163 437.708 680.95 435.59 681.26L435.36 681.421H435.016L430.024 682.294V682.524L429.817 682.685C428.053 683.389 426.085 683.389 424.32 682.685V682.432C423.157 682.237 421.982 682.129 420.802 682.11H420.572C418.643 680.993 416.19 681.421 414.754 683.122C415.779 687.6 418.831 691.347 423.01 693.259L423.171 693.466C424.6 693.505 426.022 693.294 427.38 692.846V692.731L427.587 692.57C429.988 689.453 433.58 687.478 437.499 687.122V687.398C431.864 697.82 427.028 708.656 423.033 719.81L422.826 719.948C420.759 721.64 418.429 722.984 415.926 723.925H415.696C414.813 724.072 413.978 724.426 413.258 724.959V725.304V725.419C412.253 725.706 411.29 726.115 410.384 726.637H410.153C408.705 727.352 407.152 727.833 405.554 728.062V728.292H405.209C403.707 728.193 402.236 728.757 401.184 729.832C401.95 732.816 403.96 735.329 406.704 736.729C407.738 737.159 408.882 737.246 409.969 736.982H410.223C415.487 736.572 420.458 734.393 424.32 730.798C425.567 729.481 426.904 728.251 428.322 727.12C429.484 726.738 430.523 726.058 431.336 725.143V724.913C436.328 721.566 440.723 717.401 444.33 712.592C444.589 712.054 444.589 711.429 444.33 710.891C442.306 708.27 439.96 708.454 437.43 711.534V711.764C436.533 712.063 435.728 711.603 434.763 710.822L434.578 710.615C438.764 706.606 441.575 701.376 442.604 695.673V695.466C446.149 692.848 448.019 688.531 447.504 684.156Z" fill="white"/>
    <path fill-rule="evenodd" clip-rule="evenodd" d="M535.359 715.327L535.566 715.488C541.463 714.445 546.255 710.151 547.939 704.408C548.859 701.65 547.709 700.615 544.673 701.627V701.42C543.37 701.836 542.185 702.562 541.224 703.535V703.742C535.607 705.309 529.593 703.438 525.86 698.96C522.894 695.926 520.064 694.914 517.098 696.041C521.143 704.132 527.498 710.845 535.359 715.327Z" fill="white"/>
    <path fill-rule="evenodd" clip-rule="evenodd" d="M287.57 642.455H287.317C286.147 643.232 285.121 644.202 284.282 645.329C283.43 647.023 282.812 648.825 282.442 650.685V650.914H282.235L280.303 655.052V655.282V655.489C279.481 658.135 278.187 660.613 276.485 662.799H276.301C273.338 663.36 270.406 664.075 267.516 664.937H267.239C265.975 665.121 265.469 664.224 265.63 662.224C265.837 661.81 265.837 661.535 265.261 661.65C258.38 663.091 252.175 666.778 247.622 672.132H247.415C248.364 667.902 246.724 665.603 242.492 665.236C241.279 668.429 239.905 671.559 238.376 674.615V674.821C237.686 676.316 236.95 677.925 236.237 679.419L236.099 679.764V679.948C235.694 680.357 235.317 680.796 234.973 681.258H234.766C234.443 682.164 233.926 682.989 233.247 683.672L232.396 685.465L232.235 685.809V686.016C231.784 686.637 231.293 687.23 230.764 687.786C228.624 690.706 228.21 692.959 229.039 694.798H229.269C231.568 696.361 233.316 696.683 234.65 695.74L234.881 695.579C240.742 687.331 247.858 680.049 255.97 673.994H256.131C258.176 674.746 260.462 674.389 262.18 673.051L262.387 672.867C265.266 671.987 268.32 671.854 271.264 672.477L271.057 672.913C268.435 674.32 265.634 675.364 262.731 676.017C262.764 676.191 262.764 676.371 262.731 676.545C265.307 678.269 265.584 678.844 263.468 678.063C267.17 679.925 270.367 681.557 273.104 683.051V682.936C275.963 681.796 278.171 679.446 279.129 676.522V676.339C279.035 674.169 279.712 672.035 281.038 670.316L281.176 669.994C285.776 668.891 290.537 667.465 295.344 665.833H295.551C288.169 672.73 280.349 679.511 272.092 686.315C269.233 688.618 266.492 691.067 263.882 693.648C252.198 700.544 240.462 707.441 228.671 714.337C225.986 716.19 223.721 718.587 222.024 721.371C221.678 721.81 221.435 722.32 221.311 722.865C233.972 718.548 246.009 712.588 257.119 705.142C268.343 697.533 279.405 689.418 290.376 680.66C295.353 676.642 299.971 672.196 304.176 667.373C306.476 665.075 306.866 663.029 305.555 661.121C301.271 658.84 296.278 658.282 291.595 659.558H291.319C290.652 659.903 289.917 660.339 289.203 660.776V661.006C287.735 660.781 286.234 660.923 284.833 661.42H284.581C286.329 658.477 288.146 655.144 290.146 651.42L290.353 651.259L290.514 650.937C291.181 649.806 291.627 648.558 291.825 647.259L291.963 646.938C292.72 645.823 292.428 644.308 291.312 643.554C291.254 643.515 291.195 643.478 291.135 643.444V643.329C290.156 642.526 288.902 642.131 287.639 642.225L287.57 642.455Z" fill="white"/>
    <path fill-rule="evenodd" clip-rule="evenodd" d="M335.178 687.324L335.339 687.117C337.386 681.485 335.753 678.588 330.554 678.266H330.325C328.945 678.657 327.542 679.117 326.254 679.6V679.968C324.347 680.591 322.349 680.878 320.343 680.818V681.071C320.343 681.071 319.929 681.462 319.355 682.059H319.102C316.551 682.51 314.078 683.331 311.765 684.496C311.606 686.197 311.926 687.907 312.685 689.438L312.869 689.576C314.718 690.652 316.857 691.119 318.987 690.91H319.24C321.539 690.381 322.506 691.254 322.206 693.714V694.059V694.289C321.751 698.905 320.171 703.341 317.607 707.208H317.469C315.75 708.265 313.614 708.387 311.788 707.53H311.558C308.844 708.61 306.131 709.828 303.531 710.909C304.751 714.932 307.694 716.541 312.133 715.644H312.386C313.246 715.913 313.727 716.828 313.46 717.688C313.455 717.704 313.448 717.72 313.444 717.736V718.081C312.407 721.575 310.406 724.704 307.671 727.115L307.533 727.322C305.015 728.124 302.786 729.641 301.117 731.689H301.369C302.66 732.774 303.722 734.103 304.498 735.597V735.735C306.423 736.367 308.456 736.611 310.477 736.448H310.707C316.618 729.368 322.529 722.287 328.462 715.092C330.286 712.812 331.505 710.107 332.004 707.231C332.211 706.794 331.866 706.61 331.176 706.472C326.715 707.966 325.219 707.001 326.577 703.645V703.415V703.162C326.563 701.744 326.733 700.33 327.082 698.955V698.61C328.071 696.312 329.382 694.22 330.486 692.059H330.739C332.525 690.799 334.034 689.188 335.178 687.324Z" fill="white"/>
    <path fill-rule="evenodd" clip-rule="evenodd" d="M346.171 687.438V687.094C352.962 681.933 361.049 678.749 369.538 677.899H369.791C366.044 684.82 361.302 691.156 355.716 696.702C357.852 692.756 358.811 688.28 358.475 683.807C358.305 683.705 358.119 683.634 357.924 683.6C354.719 684.126 352.256 686.719 351.898 689.944C351.7 690.969 350.899 691.769 349.874 691.967C346.309 691.829 344.86 693.346 345.619 696.358V696.588C346.911 697.502 347.445 699.16 346.93 700.656V700.863C345.035 703.33 342.76 705.479 340.191 707.231L340.03 707.415C342.429 711.798 342.08 717.171 339.134 721.207H339.019C335.937 720.426 334.648 721.644 335.04 724.678H335.293C336.99 727.715 337.135 731.379 335.684 734.54H335.454C332.683 736.092 331.659 739.576 333.154 742.379V742.54C335.339 743.643 336.396 744.424 336.35 744.838C338.349 745.443 340.396 745.882 342.468 746.149H342.813C344.046 746.638 345.389 746.79 346.7 746.585H347.023C348.466 747.459 350.214 747.677 351.829 747.183H352.059H352.312C354.761 745.326 355.24 741.836 353.382 739.388C353.306 739.287 353.225 739.188 353.14 739.091V738.862C352.289 738.002 350.989 737.772 349.897 738.287V738.517H349.667C347.227 739.914 344.29 740.142 341.663 739.137C340.685 737.381 340.407 735.321 340.882 733.368C344.267 731.616 347.48 729.545 350.472 727.184H350.61C352.659 725.412 353.402 722.556 352.473 720.012V719.736C350.83 719.306 349.134 719.12 347.436 719.184V719.552C346.056 720.609 345.665 719.552 345.895 716.035C348.032 714.178 349.656 711.803 350.61 709.139V708.909C355.169 707.369 359.373 704.939 362.983 701.76C363.301 701.551 363.561 701.266 363.742 700.932C365.474 696.351 368.415 692.323 372.252 689.278H372.367C373.447 687.553 374.623 685.887 375.886 684.289V684.059C377.336 683.607 378.634 682.765 379.635 681.623L379.819 681.278C380.996 679.386 381.398 677.115 380.945 674.933V674.68C380.423 673.57 379.766 672.529 378.99 671.577V671.462V671.209C377.596 670.632 376.104 670.336 374.597 670.336V670.681H374.368C372.528 670.956 369.192 671.554 364.225 672.589L364.064 672.818C363.187 673.241 362.369 673.775 361.627 674.405C359.557 674.791 357.514 675.306 355.509 675.945C354.425 676.409 353.4 676.995 352.45 677.692C350.154 679.717 346.907 680.26 344.078 679.094C343.287 678.855 342.454 679.301 342.215 680.092C342.206 680.119 342.199 680.147 342.192 680.175C340.741 685.246 338.911 690.202 336.718 695.001C337.363 700.84 339.754 702.219 343.848 699.254L343.986 699.139C344.239 695.165 344.973 691.236 346.171 687.438Z" fill="white"/>
    <path fill-rule="evenodd" clip-rule="evenodd" d="M208.938 596.986L208.708 597.101C207.257 600.896 206.081 604.792 205.189 608.755C204.182 613.151 202.432 617.339 200.015 621.146C199.186 622.134 198.358 623.146 197.507 624.134L197.3 624.387C196.771 625.03 196.22 625.651 195.713 626.295L195.483 626.571L195.207 626.341L192.333 629.858L192.103 630.134C185.969 635.561 180.313 641.506 175.198 647.903C174.642 648.646 173.817 649.142 172.898 649.282C160.503 652.912 147.436 653.62 134.721 651.351C132.575 653.763 131.563 656.974 131.938 660.178L132.122 660.339C132.185 661.247 132.729 662.054 133.548 662.454C136.468 663.351 139.482 664.178 142.356 664.753H142.632C148.555 664.289 154.45 663.521 160.295 662.454C163.402 660.116 167.249 658.981 171.127 659.259C166.382 664.826 160.94 669.764 154.936 673.948L154.729 674.224C153.044 676.52 152.942 679.617 154.476 682.017L154.66 682.177C156.304 682.823 158.178 682.308 159.261 680.913L159.514 680.66C161.079 680.559 162.603 680.113 163.975 679.35L164.297 679.143C167.783 680.03 171.443 679.975 174.899 678.982H175.06C177.3 680.837 178.487 683.672 178.234 686.568V686.821C175.409 687.89 172.48 688.66 169.495 689.12C174.89 690.864 180.457 692.028 186.1 692.591H186.261C187.409 691.051 187.876 689.106 187.548 687.212V687.051C186.123 684.177 184.789 681.373 183.524 678.293C187.157 677.283 190.907 676.757 194.678 676.729C195.074 674.785 194.841 672.764 194.012 670.959L193.827 670.799C189.739 668.548 185.155 667.346 180.488 667.305V671.534C183.478 671.281 184.582 671.534 183.961 671.994C181.868 673.925 180.764 673.764 180.488 671.534V667.305L180.304 667.144C182.901 664.992 185.198 662.502 187.135 659.742L187.295 659.558C192.223 659.192 196.735 656.668 199.623 652.662C199.945 651.374 199.347 650.363 197.737 650.156H197.576C191.435 650.708 185.939 651.006 181.04 651.374H180.787C192.499 639.276 203.091 626.141 212.434 612.135C213.705 610.256 214.734 608.227 215.492 606.089C215.239 603.1 215.078 600.365 214.78 597.974V597.721C213.331 595.974 210.774 595.652 208.938 596.986Z" fill="white"/>
    <path fill-rule="evenodd" clip-rule="evenodd" d="M264.227 643.768C264.383 642.028 264.139 640.274 263.514 638.642C261.973 634.412 259.189 632.872 255.418 633.7C254.863 636.536 255.228 639.474 256.453 642.09V642.366C256.177 643.263 255.924 644.32 255.579 645.332V645.607L255.257 645.446C254.498 647.033 253.923 648.596 253.211 650.044L253.372 650.251C255.004 650.366 256.614 649.17 258.178 646.642C260.305 647.304 262.619 646.571 263.974 644.803C264.121 644.476 264.206 644.125 264.227 643.768Z" fill="white"/>
    </svg>
    