<?xml version="1.0" standalone="no"?><!DOCTYPE svg PUBLIC "-//W3C//DTD SVG 1.1//EN" "http://www.w3.org/Graphics/SVG/1.1/DTD/svg11.dtd"><svg t="1740547341755" class="icon" viewBox="0 0 1024 1024" version="1.1" xmlns="http://www.w3.org/2000/svg" p-id="11772" xmlns:xlink="http://www.w3.org/1999/xlink" width="32" height="32"><path d="M496.246154 721.526154l-181.169231-110.276923v47.261538l42.535385 135.483077 138.633846-56.713846 138.633846 56.713846 42.535385-135.483077v-47.261538z" fill="#FFFFFF" p-id="11773"></path><path d="M976.738462 877.489231v126.030769H581.316923l111.852308-110.276923-15.753846-47.261539 78.76923-110.276923-33.083077-33.083077c36.233846 15.753846 137.058462 56.713846 159.113847 64.59077 63.015385 23.630769 94.523077 47.261538 94.523077 110.276923z" fill="#5C9EFF" p-id="11774"></path><path d="M581.316923 1003.52h-23.630769l77.193846-212.676923 42.535385-133.907692 78.76923 78.76923-78.76923 110.276923 15.753846 47.261539z" fill="#94C1FF" p-id="11775"></path><path d="M15.753846 877.489231v126.030769h395.421539l-111.852308-110.276923 15.753846-47.261539-78.769231-110.276923 33.083077-33.083077c-36.233846 15.753846-137.058462 56.713846-159.113846 64.59077-63.015385 23.630769-94.523077 47.261538-94.523077 110.276923z" fill="#5C9EFF" p-id="11776"></path><path d="M357.612308 790.843077L315.076923 656.935385l-78.769231 78.76923 78.769231 110.276923-15.753846 47.261539 113.427692 110.276923h23.630769z" fill="#94C1FF" p-id="11777"></path><path d="M236.307692 735.704615l33.083077-33.083077c-44.110769 18.904615-141.784615 58.289231-159.113846 64.59077-63.015385 23.630769-94.523077 47.261538-94.523077 110.276923v126.030769h31.507692v-94.523077c0-63.015385 31.507692-86.646154 94.523077-110.276923 14.178462-4.726154 69.316923-28.356923 108.701539-44.110769l-14.178462-18.904616z" fill="#94C1FF" p-id="11778"></path><path d="M756.184615 735.704615l-33.083077-33.083077c44.110769 18.904615 141.784615 58.289231 159.113847 64.59077 63.015385 23.630769 94.523077 47.261538 94.523077 110.276923v126.030769h-31.507693v-94.523077c0-63.015385-31.507692-86.646154-94.523077-110.276923-14.178462-4.726154-69.316923-26.781538-108.701538-44.110769l14.178461-18.904616z" fill="#2287FF" p-id="11779"></path><path d="M496.246154 735.704615l138.633846 56.713847-77.193846 211.101538h-121.304616l-78.76923-211.101538z" fill="#D7E9FF" p-id="11780"></path><path d="M535.630769 814.473846h-78.769231l-25.206153-51.987692 64.590769-26.781539 64.590769 26.781539zM551.384615 1001.944615h-110.276923v-108.701538l31.507693-78.769231h47.261538l31.507692 78.769231zM639.606154 130.756923s168.566154-23.630769 130.756923 226.855385l-69.316923-113.427693s-110.276923 45.686154-209.526154 45.686154c-99.249231 0-207.950769-45.686154-207.950769-45.686154l-66.166154 113.427693C179.593846-59.864615 667.963077 15.753846 685.292308 18.904615c-74.043077 29.932308-45.686154 111.852308-45.686154 111.852308z" fill="#94C1FF" p-id="11781"></path><path d="M639.606154 130.756923S756.184615 110.276923 743.581538 313.501538l26.781539 44.11077c39.384615-250.486154-130.756923-226.855385-130.756923-226.855385z" fill="#5C9EFF" p-id="11782"></path><path d="M601.796923 11.027692c-141.784615-3.150769-412.750769 31.507692-382.818461 346.584616l29.932307-50.412308C252.061538 58.289231 463.163077 14.178462 601.796923 11.027692z" fill="#D7E9FF" p-id="11783"></path><path d="M770.363077 357.612308v31.507692c0 181.169231-170.141538 330.830769-275.692308 330.830769-105.550769 0-275.692308-149.661538-275.692307-330.830769v-31.507692l66.166153-113.427693s108.701538 45.686154 207.95077 45.686154c99.249231 0 209.526154-45.686154 209.526153-45.686154l67.741539 113.427693z" fill="#D7E9FF" p-id="11784"></path><path d="M250.486154 389.12v-31.507692l59.864615-103.975385c-15.753846-6.301538-25.206154-9.452308-25.206154-9.452308l-66.166153 113.427693v31.507692c0 181.169231 170.141538 330.830769 275.692307 330.830769 4.726154 0 11.027692 0 15.753846-1.575384-105.550769-12.603077-259.938462-157.538462-259.938461-329.255385z" fill="#FFFFFF" p-id="11785"></path><path d="M738.855385 389.12v-31.507692l-59.864616-103.975385c15.753846-6.301538 25.206154-9.452308 25.206154-9.452308l66.166154 113.427693v31.507692c0 181.169231-170.141538 330.830769-275.692308 330.830769-4.726154 0-11.027692 0-15.753846-1.575384 105.550769-12.603077 259.938462-157.538462 259.938462-329.255385z" fill="#94C1FF" p-id="11786"></path><path d="M834.953846 719.950769m-15.753846 0a15.753846 15.753846 0 1 0 31.507692 0 15.753846 15.753846 0 1 0-31.507692 0Z" fill="#D7E9FF" p-id="11787"></path><path d="M913.723077 877.489231h94.523077c0 26.781538-20.48 47.261538-47.261539 47.261538s-47.261538-20.48-47.261538-47.261538zM929.476923 987.766154v15.753846H740.430769v-15.753846c0-7.876923 7.876923-15.753846 15.753846-15.753846h157.538462c9.452308 0 15.753846 7.876923 15.753846 15.753846z" fill="#D7E9FF" p-id="11788"></path><path d="M771.938462 972.012308h-15.753847c-7.876923 0-15.753846 7.876923-15.753846 15.753846v15.753846h15.753846v-15.753846c0-7.876923 7.876923-15.753846 15.753847-15.753846z" fill="#FFFFFF" p-id="11789"></path><path d="M897.969231 972.012308h15.753846c7.876923 0 15.753846 7.876923 15.753846 15.753846v15.753846h-15.753846v-15.753846c0-7.876923-6.301538-15.753846-15.753846-15.753846z" fill="#94C1FF" p-id="11790"></path><path d="M661.661538 877.489231h94.523077c0 26.781538-20.48 47.261538-47.261538 47.261538s-47.261538-20.48-47.261539-47.261538z" fill="#D7E9FF" p-id="11791"></path><path d="M494.670769 727.827692c-108.701538 0-283.569231-154.387692-283.569231-338.707692 0-4.726154 3.150769-7.876923 7.876924-7.876923s7.876923 3.150769 7.876923 7.876923c0 174.867692 163.84 322.953846 267.815384 322.953846s267.815385-148.086154 267.815385-322.953846c0-4.726154 3.150769-7.876923 7.876923-7.876923s7.876923 3.150769 7.876923 7.876923c0 184.32-174.867692 338.707692-283.569231 338.707692zM218.978462 365.489231h-1.575385c-3.150769 0-6.301538-3.150769-6.301539-6.301539-11.027692-115.003077 17.329231-204.8 81.92-264.664615C428.504615-31.507692 675.84 9.452308 686.867692 11.027692c3.150769 0 6.301538 3.150769 6.301539 6.301539s-1.575385 6.301538-4.726154 7.876923c-56.713846 23.630769-47.261538 78.769231-42.535385 97.673846 17.329231 0 61.44 1.575385 96.098462 36.233846 39.384615 39.384615 50.412308 107.126154 36.233846 200.073846 0 3.150769-3.150769 6.301538-6.301538 6.301539s-6.301538-1.575385-7.876924-3.150769l-66.166153-107.126154c-25.206154 9.452308-118.153846 44.110769-204.8 44.110769s-179.593846-33.083077-204.8-42.535385l-63.015385 107.126154c-1.575385 0-3.150769 1.575385-6.301538 1.575385zM701.046154 236.307692c3.150769 0 4.726154 1.575385 6.301538 3.15077l58.289231 94.523076c9.452308-77.193846-3.150769-132.332308-34.658461-165.415384-36.233846-37.809231-88.221538-31.507692-89.796924-31.507692-3.150769 0-7.876923-1.575385-7.876923-4.726154 0-1.575385-23.630769-72.467692 28.356923-110.276923-66.166154-6.301538-250.486154-15.753846-357.612307 83.495384-56.713846 51.987692-83.495385 127.606154-78.769231 225.28l53.563077-91.372307c1.575385-3.150769 6.301538-4.726154 9.452308-3.15077 1.575385 0 108.701538 44.110769 204.8 44.11077s204.8-44.110769 206.375384-44.11077h1.575385zM708.923077 1011.396923H15.753846c-4.726154 0-7.876923-3.150769-7.876923-7.876923v-126.030769c0-67.741538 34.658462-92.947692 99.249231-118.153846 12.603077-4.726154 44.110769-15.753846 80.344615-31.507693l12.603077-6.301538c4.726154-1.575385 7.876923 0 11.027692 4.726154 1.575385 4.726154 0 7.876923-4.726153 11.027692l-12.603077 6.301538c-37.809231 15.753846-69.316923 28.356923-81.92 33.083077-59.864615 22.055385-89.796923 44.110769-89.796923 102.4v118.153847H708.923077c4.726154 0 7.876923 3.150769 7.876923 7.876923s-3.150769 6.301538-7.876923 6.301538zM535.630769 822.350769h-78.769231c-3.150769 0-6.301538-1.575385-6.301538-4.726154l-15.753846-31.507692c-1.575385-3.150769 0-7.876923 3.150769-11.027692s7.876923 0 11.027692 3.150769l14.178462 26.781538h69.316923l14.178462-26.781538c1.575385-3.150769 6.301538-4.726154 11.027692-3.150769 3.150769 1.575385 4.726154 6.301538 3.150769 11.027692l-15.753846 31.507692c-3.150769 3.150769-6.301538 4.726154-9.452308 4.726154z" fill="#116FFF" p-id="11792"></path><path d="M441.107692 901.12h-3.150769c-4.726154-1.575385-6.301538-6.301538-4.726154-9.452308l31.507693-78.76923c1.575385-4.726154 6.301538-6.301538 9.452307-4.726154 4.726154 1.575385 6.301538 6.301538 4.726154 9.452307l-31.507692 78.769231c0 3.150769-3.150769 4.726154-6.301539 4.726154zM551.384615 901.12c-3.150769 0-6.301538-1.575385-7.876923-4.726154l-31.507692-78.769231c-1.575385-4.726154 0-7.876923 4.726154-9.452307 4.726154-1.575385 7.876923 0 9.452308 4.726154l31.507692 78.76923c1.575385 4.726154 0 7.876923-4.726154 9.452308H551.384615zM614.4 790.843077h-3.150769l-118.153846-47.261539c-4.726154-1.575385-6.301538-6.301538-4.726154-9.452307s6.301538-6.301538 9.452307-4.726154l118.153847 47.261538c4.726154 1.575385 6.301538 6.301538 4.726153 9.452308 0 3.150769-3.150769 4.726154-6.301538 4.726154zM379.667692 979.889231c-1.575385 0-4.726154 0-6.301538-1.575385l-80.344616-78.769231c-1.575385-1.575385-3.150769-4.726154-1.575384-7.876923l14.178461-44.110769-75.618461-107.126154c-1.575385-3.150769-1.575385-7.876923 1.575384-9.452307l78.769231-78.769231c3.150769-3.150769 7.876923-3.150769 11.027693 0s3.150769 7.876923 0 11.027692l-74.043077 74.043077 75.618461 105.550769c1.575385 1.575385 1.575385 4.726154 1.575385 6.301539l-14.178462 42.535384 75.618462 75.618462c3.150769 3.150769 3.150769 7.876923 0 11.027692-3.150769 1.575385-4.726154 1.575385-6.301539 1.575385z" fill="#116FFF" p-id="11793"></path><path d="M425.353846 979.889231c-3.150769 0-6.301538-1.575385-7.876923-4.726154l-110.276923-315.076923c-1.575385-4.726154 0-7.876923 4.726154-9.452308 4.726154-1.575385 7.876923 0 9.452308 4.726154l110.276923 315.076923c1.575385 4.726154 0 7.876923-4.726154 9.452308H425.353846zM567.138462 979.889231h-3.15077c-4.726154-1.575385-6.301538-6.301538-4.726154-9.452308l110.276924-315.076923c1.575385-4.726154 6.301538-6.301538 9.452307-4.726154 4.726154 1.575385 6.301538 6.301538 4.726154 9.452308l-110.276923 315.076923c0 3.150769-3.150769 4.726154-6.301538 4.726154zM378.092308 790.843077c-3.150769 0-6.301538-1.575385-7.876923-4.726154-1.575385-4.726154 0-7.876923 4.726153-9.452308l118.153847-47.261538c4.726154-1.575385 7.876923 0 9.452307 4.726154s0 7.876923-4.726154 9.452307l-118.153846 47.261539H378.092308zM496.246154 979.889231c-4.726154 0-7.876923-3.150769-7.876923-7.876923v-110.276923c0-4.726154 3.150769-7.876923 7.876923-7.876923s7.876923 3.150769 7.876923 7.876923v110.276923c0 4.726154-3.150769 7.876923-7.876923 7.876923zM803.446154 727.827692h-94.523077c-4.726154 0-7.876923-3.150769-7.876923-7.876923s3.150769-7.876923 7.876923-7.876923h94.523077c4.726154 0 7.876923 3.150769 7.876923 7.876923s-3.150769 7.876923-7.876923 7.876923zM960.984615 727.827692h-94.523077c-4.726154 0-7.876923-3.150769-7.876923-7.876923s3.150769-7.876923 7.876923-7.876923h94.523077c4.726154 0 7.876923 3.150769 7.876923 7.876923s-3.150769 7.876923-7.876923 7.876923zM708.923077 932.627692c-29.932308 0-55.138462-25.206154-55.138462-55.138461 0-4.726154 3.150769-7.876923 7.876923-7.876923s7.876923 3.150769 7.876924 7.876923c0 22.055385 17.329231 39.384615 39.384615 39.384615s39.384615-17.329231 39.384615-39.384615c0-4.726154 3.150769-7.876923 7.876923-7.876923s7.876923 3.150769 7.876923 7.876923c0 29.932308-25.206154 55.138462-55.138461 55.138461z" fill="#116FFF" p-id="11794"></path><path d="M756.184615 885.366154h-94.523077c-4.726154 0-7.876923-3.150769-7.876923-7.876923s3.150769-7.876923 7.876923-7.876923h94.523077c4.726154 0 7.876923 3.150769 7.876923 7.876923s-3.150769 7.876923-7.876923 7.876923zM661.661538 869.612308h-3.150769c-4.726154-1.575385-6.301538-6.301538-4.726154-11.027693l47.261539-110.276923c1.575385-4.726154 6.301538-6.301538 11.027692-4.726154 4.726154 1.575385 6.301538 6.301538 4.726154 11.027693l-47.261538 110.276923c-1.575385 3.150769-4.726154 4.726154-7.876924 4.726154z" fill="#116FFF" p-id="11795"></path><path d="M756.184615 869.612308c-3.150769 0-6.301538-1.575385-7.876923-4.726154l-47.261538-110.276923c-1.575385-4.726154 0-7.876923 4.726154-11.027693 4.726154-1.575385 7.876923 0 11.027692 4.726154l47.261538 110.276923c1.575385 4.726154 0 7.876923-4.726153 11.027693H756.184615zM960.984615 932.627692c-29.932308 0-55.138462-25.206154-55.138461-55.138461 0-4.726154 3.150769-7.876923 7.876923-7.876923s7.876923 3.150769 7.876923 7.876923c0 22.055385 17.329231 39.384615 39.384615 39.384615s39.384615-17.329231 39.384616-39.384615c0-4.726154 3.150769-7.876923 7.876923-7.876923s7.876923 3.150769 7.876923 7.876923c0 29.932308-25.206154 55.138462-55.138462 55.138461z" fill="#116FFF" p-id="11796"></path><path d="M1008.246154 885.366154h-94.523077c-4.726154 0-7.876923-3.150769-7.876923-7.876923s3.150769-7.876923 7.876923-7.876923h94.523077c4.726154 0 7.876923 3.150769 7.876923 7.876923s-3.150769 7.876923-7.876923 7.876923zM913.723077 869.612308h-3.150769c-4.726154-1.575385-6.301538-6.301538-4.726154-11.027693l47.261538-110.276923c1.575385-4.726154 6.301538-6.301538 11.027693-4.726154 4.726154 1.575385 6.301538 6.301538 4.726153 11.027693l-47.261538 110.276923c-1.575385 3.150769-4.726154 4.726154-7.876923 4.726154z" fill="#116FFF" p-id="11797"></path><path d="M1008.246154 869.612308c-3.150769 0-6.301538-1.575385-7.876923-4.726154l-47.261539-110.276923c-1.575385-4.726154 0-7.876923 4.726154-11.027693 4.726154-1.575385 7.876923 0 11.027692 4.726154l47.261539 110.276923c1.575385 4.726154 0 7.876923-4.726154 11.027693H1008.246154zM834.953846 743.581538c-12.603077 0-23.630769-11.027692-23.630769-23.630769s11.027692-23.630769 23.630769-23.630769 23.630769 11.027692 23.630769 23.630769-11.027692 23.630769-23.630769 23.630769z m0-31.507692c-4.726154 0-7.876923 3.150769-7.876923 7.876923s3.150769 7.876923 7.876923 7.876923 7.876923-3.150769 7.876923-7.876923-3.150769-7.876923-7.876923-7.876923z" fill="#116FFF" p-id="11798"></path><path d="M834.953846 712.073846c-4.726154 0-7.876923-3.150769-7.876923-7.876923v-15.753846c0-4.726154 3.150769-7.876923 7.876923-7.876923s7.876923 3.150769 7.876923 7.876923v15.753846c0 4.726154-3.150769 7.876923-7.876923 7.876923zM834.953846 979.889231c-4.726154 0-7.876923-3.150769-7.876923-7.876923v-220.553846c0-4.726154 3.150769-7.876923 7.876923-7.876924s7.876923 3.150769 7.876923 7.876924v220.553846c0 4.726154-3.150769 7.876923-7.876923 7.876923z" fill="#116FFF" p-id="11799"></path><path d="M913.723077 979.889231H756.184615c-4.726154 0-7.876923-3.150769-7.876923-7.876923s3.150769-7.876923 7.876923-7.876923h157.538462c4.726154 0 7.876923 3.150769 7.876923 7.876923s-3.150769 7.876923-7.876923 7.876923z" fill="#116FFF" p-id="11800"></path><path d="M740.430769 995.643077c-4.726154 0-7.876923-3.150769-7.876923-7.876923 0-12.603077 11.027692-23.630769 23.630769-23.630769 4.726154 0 7.876923 3.150769 7.876923 7.876923s-3.150769 7.876923-7.876923 7.876923-7.876923 3.150769-7.876923 7.876923-3.150769 7.876923-7.876923 7.876923zM929.476923 995.643077c-4.726154 0-7.876923-3.150769-7.876923-7.876923s-3.150769-7.876923-7.876923-7.876923-7.876923-3.150769-7.876923-7.876923 3.150769-7.876923 7.876923-7.876923c12.603077 0 23.630769 11.027692 23.630769 23.630769 0 4.726154-3.150769 7.876923-7.876923 7.876923z" fill="#116FFF" p-id="11801"></path><path d="M740.430769 1011.396923c-4.726154 0-7.876923-3.150769-7.876923-7.876923v-15.753846c0-4.726154 3.150769-7.876923 7.876923-7.876923s7.876923 3.150769 7.876923 7.876923v15.753846c0 4.726154-3.150769 7.876923-7.876923 7.876923zM929.476923 1011.396923c-4.726154 0-7.876923-3.150769-7.876923-7.876923v-15.753846c0-4.726154 3.150769-7.876923 7.876923-7.876923s7.876923 3.150769 7.876923 7.876923v15.753846c0 4.726154-3.150769 7.876923-7.876923 7.876923z" fill="#116FFF" p-id="11802"></path><path d="M929.476923 1011.396923H740.430769c-4.726154 0-7.876923-3.150769-7.876923-7.876923s3.150769-7.876923 7.876923-7.876923h189.046154c4.726154 0 7.876923 3.150769 7.876923 7.876923s-3.150769 7.876923-7.876923 7.876923z" fill="#116FFF" p-id="11803"></path></svg>