<?xml version="1.0" standalone="no"?><!DOCTYPE svg PUBLIC "-//W3C//DTD SVG 1.1//EN" "http://www.w3.org/Graphics/SVG/1.1/DTD/svg11.dtd"><svg t="1740547229733" class="icon" viewBox="0 0 1024 1024" version="1.1" xmlns="http://www.w3.org/2000/svg" p-id="8886" xmlns:xlink="http://www.w3.org/1999/xlink" width="32" height="32"><path d="M417.737638 463.448214c0 51.882648 42.196031 94.077655 94.079702 94.077655 51.865251 0 94.078679-42.195008 94.078679-94.077655 0-51.883671-42.213427-94.078679-94.078679-94.078679C459.932646 369.369535 417.737638 411.565567 417.737638 463.448214z" fill="#649CF1" p-id="8887"></path><path d="M443.540304 352.60164c-17.164938-10.858302-44.334741-24.186865-70.746274-21.12718-18.757203 2.168386-34.425044 12.30628-47.870264 30.955013 0.054235 0-26.727735 44.25697-10.933003 81.393775 9.577123 22.533202 33.473369 39.154765 71.064522 49.493228-2.25946-9.593496-3.459798-19.59222-3.459798-29.867238C381.594463 416.655492 406.395312 375.562585 443.540304 352.60164z" fill="#649CF1" p-id="8888"></path><path d="M510.977205 63.280232c-247.351528 0-447.868377 200.51685-447.868377 447.867354 0 247.351528 200.51685 447.867354 447.868377 447.867354 247.350504 0 447.866331-200.515826 447.866331-447.867354C958.843536 263.797082 758.32771 63.280232 510.977205 63.280232zM818.683333 483.850893c0 9.975189-8.095375 18.070564-18.070564 18.070564l-58.623165 0-61.497633 54.809303c-3.414773 3.036149-7.715729 4.591575-12.034081 4.591575-3.344165 0-6.687306-0.921999-9.650801-2.801812-6.813173-4.299933-9.957793-12.596899-7.698333-20.330024l11.114129-38.057781-0.904603-0.180102c-9.776667-2.078335-16.010649-11.6749-13.932314-21.432125 2.060939-9.776667 11.619642-16.030092 21.414729-13.933337l19.968797 4.228301c4.915963 1.048889 9.181103 4.085038 11.764951 8.403391 1.987261 3.344165 2.836605 7.211239 2.476401 11.023054l20.039405-17.872043c3.307326-2.945075 7.590885-4.572132 12.036128-4.572132l47.436382 0L782.522762 299.28841 531.603988 299.28841l0 35.438117c62.442144 9.559727 110.433158 63.633273 110.433158 128.721687 0 47.587831-25.659403 89.281419-63.859423 112.000863 46.919613 12.06785 111.496373 49.523927 128.771829 162.916487 1.500167 9.866718-5.276167 19.082614-15.142885 20.582781-0.921999 0.12689-1.843998 0.198521-2.747577 0.198521-8.764618 0-16.48137-6.396687-17.83725-15.360849C648.687614 595.856873 535.453666 605.686752 530.647197 606.157473c-1.320065 0.143263-2.747577 0.143263-4.103458-0.01842-35.328623-4.337795-65.146743 3.036149-88.621387 21.793352-48.556902 38.763862-56.816007 114.191762-56.888661 114.951055-1.01205 9.920954-9.812483 17.203824-19.787672 16.155958-9.920954-0.994654-17.149589-9.830903-16.174378-19.753903 0.36225-3.684926 9.668197-91.00569 70.097498-139.436726 11.159154-8.945743 23.281239-15.94925 36.304857-21.028942-20.72809-10.882861-38.177508-27.184129-50.455135-47.016827-2.249227 0.683569-4.671393 0.943488-7.172353 0.677429-0.469698-0.036839-54.720276-4.7727-98.163717 31.279401-32.256658 26.76355-51.213405 69.466118-56.363705 126.878712-0.812505 9.377578-8.691963 16.443507-17.963117 16.443507-0.542352 0-1.084705-0.01842-1.626034-0.070608-9.939373-0.88516-17.276479-9.668197-16.391319-19.60757 6.053879-67.623144 29.528524-118.710682 69.736271-151.8525 16.805758-13.843286 34.606169-22.896476 51.340295-28.807093-20.782326-12.866029-35.438117-29.274744-43.787272-49.063439-23.113417-54.827723 12.812817-113.017006 14.347776-115.456568 20.148899-27.992541 44.780903-43.37181 73.875544-46.696532 53.414537-5.948479 103.220896 31.93841 114.169249 40.909735 4.077875-0.923022 8.225335-1.658779 12.437264-2.188852L495.457744 281.217846c0-9.975189 8.097422-18.070564 18.072611-18.070564l287.079344 0c9.975189 0 18.070564 8.096399 18.070564 18.070564L818.680263 483.850893z" fill="#649CF1" p-id="8889"></path></svg>