<?xml version="1.0" standalone="no"?><!DOCTYPE svg PUBLIC "-//W3C//DTD SVG 1.1//EN" "http://www.w3.org/Graphics/SVG/1.1/DTD/svg11.dtd"><svg t="1740482684345" class="icon" viewBox="0 0 1030 1024" version="1.1" xmlns="http://www.w3.org/2000/svg" p-id="9388" xmlns:xlink="http://www.w3.org/1999/xlink" width="32.1875" height="32"><path d="M550.4 870.4l-12.8-12.8c-12.8-12.8-25.6-19.2-44.8-32-19.2-6.4-32-6.4-44.8-6.4-6.4-19.2-25.6-32-44.8-38.4-32-6.4-51.2 6.4-70.4 19.2 0-6.4 6.4-19.2 6.4-25.6 6.4-25.6 12.8-44.8 6.4-70.4-6.4-19.2-19.2-32-38.4-32-44.8-6.4-83.2 25.6-121.6 44.8-32 25.6-57.6 38.4-83.2 32-25.6-12.8-32-83.2-19.2-147.2 19.2-57.6 38.4-166.4 96-217.6 19.2-19.2 44.8-32 70.4-25.6 25.6 12.8 44.8 51.2 51.2 102.4 0 19.2 19.2 38.4 44.8 38.4 19.2-6.4 38.4-19.2 38.4-44.8-6.4-83.2-51.2-147.2-102.4-172.8-38.4-12.8-83.2-19.2-153.6 38.4C57.6 384 38.4 492.8 19.2 582.4c-12.8 44.8-32 204.8 70.4 243.2 64 19.2 108.8-12.8 153.6-38.4 6.4-6.4 12.8-12.8 19.2-12.8-6.4 25.6-12.8 51.2 6.4 83.2 25.6 38.4 64 44.8 108.8 12.8 6.4 0 6.4-6.4 6.4-6.4 0 12.8 6.4 25.6 19.2 32 19.2 6.4 32 12.8 44.8 12.8h12.8c6.4 6.4 12.8 6.4 19.2 19.2l19.2 19.2c6.4 6.4 19.2 6.4 25.6 6.4 12.8 0 25.6-6.4 32-19.2 19.2-25.6 12.8-51.2-6.4-64z m147.2-499.2c19.2 6.4 38.4-12.8 44.8-25.6l96-262.4c6.4-19.2 6.4-38.4-19.2-44.8-19.2-6.4-32 6.4-38.4 25.6l-102.4 262.4c0 12.8 0 38.4 19.2 44.8zM972.8 12.8c-38.4-19.2-89.6 19.2-102.4 51.2l-96 256 153.6 57.6L1017.6 128c12.8-32-6.4-96-44.8-115.2zM620.8 723.2c-12.8 25.6-25.6 153.6-6.4 198.4l-12.8 25.6c-6.4 12.8 0 19.2 12.8 25.6h6.4c6.4 0 12.8-6.4 19.2-12.8l12.8-32c44.8-19.2 108.8-121.6 121.6-153.6l128-345.6-153.6-51.2-128 345.6z" fill="#5a7ef0" p-id="9389"></path></svg>