<?xml version="1.0" standalone="no"?><!DOCTYPE svg PUBLIC "-//W3C//DTD SVG 1.1//EN" "http://www.w3.org/Graphics/SVG/1.1/DTD/svg11.dtd"><svg t="1740630950809" class="icon" viewBox="0 0 1024 1024" version="1.1" xmlns="http://www.w3.org/2000/svg" p-id="4368" xmlns:xlink="http://www.w3.org/1999/xlink" width="32" height="32"><path d="M292.569381 172.753109a156.060889 156.060889 0 0 0-158.671288 153.552859v47.294281a36.596765 36.596765 0 0 1-73.142345 0v-47.294281a228.07718 228.07718 0 0 1 231.813633-224.391912h146.284691a35.47071 35.47071 0 1 1 0 70.839053z m107.487002 833.792026h-61.421144a43.301906 43.301906 0 0 0 3.173426-16.225419 338.737608 338.737608 0 0 0-341.399191-333.363258v-37.825187a153.552859 153.552859 0 0 1 156.06089-151.198382h243.84194a153.552859 153.552859 0 0 1 156.009705 151.198382v236.215482a153.552859 153.552859 0 0 1-156.009705 151.147197z m38.951242-349.537492a47.294281 47.294281 0 1 0-48.778625-47.243097 48.010861 48.010861 0 0 0 48.625072 47.243097z" fill="#1296db" p-id="4369"></path><path d="M249.369843 989.807873a46.475332 46.475332 0 0 0 3.122242 16.737262H156.112074a156.060889 156.060889 0 0 1-156.06089-156.009705v-112.605431a252.082611 252.082611 0 0 1 249.369844 252.082611zM809.83778 0.006142a35.829 35.829 0 0 1 36.494396 35.573079v69.149971h140.756788a37.057423 37.057423 0 0 1 26.87175 11.414096 34.958868 34.958868 0 0 1 9.622646 26.922935 409.474291 409.474291 0 0 1-137.276256 266.977238 202.229116 202.229116 0 0 0 103.64818 39.616637 35.829 35.829 0 0 1 33.576892 38.234662 36.289659 36.289659 0 0 1-39.309532 32.655575 278.596071 278.596071 0 0 1-156.931023-65.515887 416.896013 416.896013 0 0 1-191.941074 65.413518 36.289659 36.289659 0 0 1-39.360716-32.60439 35.829 35.829 0 0 1 33.525708-38.285846 340.580242 340.580242 0 0 0 148.024956-48.062045 258.634199 258.634199 0 0 1-48.573888-129.137955 35.163605 35.163605 0 0 1 15.355286-33.269786 37.466898 37.466898 0 0 1 37.313345-2.86632 35.521895 35.521895 0 0 1 20.473715 30.710572 188.870017 188.870017 0 0 0 34.03755 91.722241 348.462622 348.462622 0 0 0 109.073714-182.625534h-312.224147a35.829 35.829 0 1 1 0-71.146158h140.654419V35.3233a36.084922 36.084922 0 0 1 36.187291-35.317158z m165.427614 620.660657a36.084922 36.084922 0 0 1 36.54558 35.573079V798.48101a228.537839 228.537839 0 0 1-231.608896 225.210861h-48.778625a35.829 35.829 0 1 1 0-71.146159h48.778625a156.316811 156.316811 0 0 0 158.671288-154.064702v-142.241132a36.084922 36.084922 0 0 1 36.340843-35.573079z" fill="#1296db" p-id="4370"></path></svg>