<?xml version="1.0" standalone="no"?><!DOCTYPE svg PUBLIC "-//W3C//DTD SVG 1.1//EN" "http://www.w3.org/Graphics/SVG/1.1/DTD/svg11.dtd"><svg t="1740547092651" class="icon" viewBox="0 0 1024 1024" version="1.1" xmlns="http://www.w3.org/2000/svg" p-id="6735" xmlns:xlink="http://www.w3.org/1999/xlink" width="32" height="32"><path d="M94.656102 943.905879h0.019352-0.019352zM202.794325 871.842974c-42.051316 0-76.26365 34.127184-76.26365 76.076578 0 41.948104 34.213624 76.079158 76.26365 76.079158h726.549573V871.842974H202.794325z m613.095911 94.80834H253.123277c-9.691645 0-17.54998-7.836402-17.549981-17.502244 0-9.668423 7.858335-17.506115 17.549981-17.506115h562.770829c9.689065 0 17.54482 7.837692 17.54482 17.506115 0 9.665842-7.859625 17.502245-17.54869 17.502244zM735.264571 161.772552l54.676775 33.696272V0h-127.800187v195.470114l54.676774-33.697562c5.65346-3.483419 12.794468-3.483419 18.446638 0z" fill="#1296db" p-id="6736"></path><path d="M825.034856 0v226.863459c0 13.458898-15.294789 21.962311-26.77201 14.890971l-72.221594-44.516803-72.225464 44.516803c-11.465609 7.061019-26.770719-1.424331-26.77072-14.890971V0h-422.938655c-42.775093 0-77.577028 34.127184-77.577029 76.076578v790.968309c19.941928-18.722731 46.787476-30.212853 76.263651-30.212853h726.549573V0h-104.307752zM293.395469 422.217459h-17.520307v142.404744h17.520307v19.872259h-58.560141v-19.872259h17.520306V422.217459h-17.520306v-19.87355h58.561431v19.87355z m127.706006 162.277003h-97.953738V402.341329h93.838143v20.934057h-70.321196v58.325334h65.146384v20.814072h-65.146384v61.265597h74.435501v20.814073z m130.527575 0H455.555068V402.341329h23.519528v161.33906h72.553164v20.814073z m125.470167 0h-97.957609V402.341329h93.838144v20.934057H602.658556v58.325334h65.150254v20.814072H602.658556v61.265597h74.439371v20.814073z m120.532744-9.763894c-11.602365 8.544697-27.711242 12.818981-48.330502 12.818981-7.211967 0-15.619908-0.99987-25.223823-2.99703-9.602625-1.99974-16.599136-4.48716-20.990824-7.468708v-26.804263c-0.00129 0-0.00129-0.00258-0.00387-0.00258h0.00387v0.00258c5.565729 4.862595 13.011215 8.855625 22.341617 11.991992 9.326531 3.136367 18.188607 4.703906 26.573325 4.703905 25.556683 0 38.33825-9.093013 38.33825-27.28162 0-5.094823-1.375305-9.681324-4.114305-13.758214-2.74416-4.07173-6.507542-7.680294-11.288857-10.819241-4.786476-3.133787-13.758214-7.955097-26.929408-14.462639-18.268597-9.094304-30.303164-17.539659-36.099831-25.341227-5.800537-7.800278-8.702096-16.71654-8.702097-26.752657 0-15.128359 6.07276-27.121641 18.227312-35.983717 12.151971-8.858205 27.473854-13.287308 45.978549-13.287308 18.106037 0 31.397215 2.194554 39.860633 6.584952v25.634092c-10.97535-7.602884-24.850968-11.406262-41.624275-11.406261-11.135329 0-20.20512 2.333891-27.222274 6.996511-7.015864 4.662621-10.525086 11.153391-10.525085 19.45941 0 7.369366 2.430652 13.366007 7.290666 17.991213 4.861305 4.629077 15.404452 10.936645 31.633314 18.934317 17.873809 8.545988 30.377993 17.091975 37.511261 25.632802 7.133268 8.547278 10.700547 18.152483 10.700546 28.810454-0.00129 15.990183-5.801828 28.262138-17.404192 36.804256z" fill="#1296db" p-id="6737"></path></svg>